<?xml version="1.0" encoding="utf-8"?>
<!-- Generator: Adobe Illustrator 26.0.3, SVG Export Plug-In . SVG Version: 6.00 Build 0)  -->
<svg version="1.1" id="Layer_1" xmlns="http://www.w3.org/2000/svg" xmlns:xlink="http://www.w3.org/1999/xlink" x="0px" y="0px"
	 viewBox="0 0 75 90.9" style="enable-background:new 0 0 75 90.9;" xml:space="preserve">
<style type="text/css">
	.st0{fill:#FCC51B;}
</style>
<g>
	<path class="st0" d="M9,23l-6.9-7L0,18l8.5,8.7l9.8-9.3l-1.6-1.7L9,23z"/>
	<path class="st0" d="M32.3,12.7l-0.2-4.3l4.7-0.2h0.2l3.7,4.2l3.3-0.1l-0.1-0.1L42.9,11l-2.8-3.2c2.6-0.6,3.6-1.7,3.6-3.8
		c-0.1-2.7-2.2-3.8-7.2-3.6l-7.5,0.3l0.5,12L32.3,12.7z M37,2.5c2.4-0.1,3.4,0.4,3.5,1.7c0.1,1.3-0.9,1.8-3.3,1.9l-5.1,0.2l-0.2-3.6
		L37,2.5z"/>
	<path class="st0" d="M66.6,22.6L66.2,9.8l-2.5-2.3l-8.3,8.9l2.1,1.9l6-6.4l0.7,12.5l2.5,2.3l8.3-8.9l-2.1-1.9L66.6,22.6z"/>
	<path class="st0" d="M56.1,73.5l1.6,1.7l7.7-7.3l6.9,7l2.1-2L66,64.2L56.1,73.5z"/>
	<path class="st0" d="M32.5,81.3l9.2,9.1l3.4,0L45,78.3l-2.9,0l0.1,8.7L33,78.4l-3.4,0l0.1,12.1l2.9,0L32.5,81.3z"/>
	<path class="st0" d="M12.8,74.6l-3.3-3.2l-0.1-0.1l0.6-5.5l-2.4-2.3v0.2l-0.1,1.4l-0.4,4.2c-2.2-1.5-3.8-1.4-5.2,0.1
		c-1.9,2-1.3,4.1,2.3,7.6l5.4,5.2l8.5-8.7l-2.1-2L12.8,74.6z M8.7,78.7l-3.7-3.5c-1.7-1.6-2.1-2.7-1.1-3.6c0.9-0.9,2-0.6,3.7,1
		l3.7,3.5L8.7,78.7z"/>
	<path class="st0" d="M51.1,28.7L20.5,58.8l3.4,3.3L54.5,32L51.1,28.7z"/>
</g>
</svg>
