<svg width="75" height="86" viewBox="0 0 75 86" fill="none" xmlns="http://www.w3.org/2000/svg">
<path d="M8.98026 21.5952L2.09195 14.885L0 16.783L8.51097 25.0774L18.3264 16.1852L16.7038 14.601L8.98026 21.5952Z" fill="#FCC51B"/>
<path d="M32.2701 11.6793L32.0871 7.52466L36.7483 7.36774H36.9312L40.614 11.3954L43.9548 11.2683L43.8434 11.1413L42.8969 10.1251L40.0731 7.03148C42.6582 6.49347 43.7161 5.3726 43.6286 3.4223C43.5173 0.806956 41.4572 -0.164461 36.4301 0.0223495L28.9055 0.313776L29.3986 11.8213L32.2701 11.6793ZM37.0426 1.92034C39.4288 1.83068 40.439 2.27902 40.4947 3.51944C40.5504 4.75986 39.5959 5.27546 37.1937 5.3726L32.0871 5.56689L31.9042 2.13705L37.0426 1.92034Z" fill="#FCC51B"/>
<path d="M66.5765 21.1693L66.1629 8.93696L63.6494 6.755L55.3293 15.2213L57.469 17.0744L63.4823 10.947L64.1664 22.8805L66.6799 25.0625L75 16.6037L72.8762 14.758L66.5765 21.1693Z" fill="#FCC51B"/>
<path d="M56.1088 69.8222L57.7235 71.4063L65.4709 64.4421L72.3353 71.1747L74.4352 69.2842L65.9561 60.9674L56.1088 69.8222Z" fill="#FCC51B"/>
<path d="M32.5088 77.2498L41.7197 85.9103L45.14 85.8879L45.0445 74.3654L42.1412 74.3879L42.2049 82.7196L33.0178 74.4551L29.5975 74.485L29.693 86L32.5803 85.9776L32.5088 77.2498Z" fill="#FCC51B"/>
<path d="M12.7744 70.8833L9.43365 67.8346L9.29844 67.715L9.86318 62.4395L7.47693 60.2576V60.407L7.3417 61.752L6.90422 65.8096C4.70887 64.4197 3.11006 64.4795 1.67036 65.8768C-0.270464 67.7524 0.397689 69.8297 4.00889 73.1176L9.41775 78.0494L17.9526 69.7774L15.8845 67.9018L12.7744 70.8833ZM8.72574 74.7391L5.05885 71.3989C3.33279 69.8223 2.99871 68.8434 3.91344 67.9542C4.82817 67.0649 5.89404 67.3414 7.6201 68.9181L11.287 72.2583L8.72574 74.7391Z" fill="#FCC51B"/>
<path d="M51.1165 27.0311L20.5139 55.7803L23.8829 58.9453L54.4855 30.1961L51.1165 27.0311Z" fill="#FCC51B"/>
</svg>
